<?xml version="1.0" encoding="utf-8"?>
<!-- Generator: Adobe Illustrator 24.1.0, SVG Export Plug-In . SVG Version: 6.00 Build 0)  -->
<svg version="1.1" id="レイヤー_1" xmlns="http://www.w3.org/2000/svg" xmlns:xlink="http://www.w3.org/1999/xlink" x="0px"
	 y="0px" viewBox="0 0 20 20" style="enable-background:new 0 0 20 20;" xml:space="preserve">
<g id="レイヤー_2_1_">
	<g id="レイヤー_1-2">
		<path d="M10,1.8c2.7,0,3,0,4,0.1c0.6,0,1.3,0.1,1.9,0.3c0.9,0.3,1.6,1,1.9,1.9C18,4.7,18.1,5.3,18.1,6c0,1,0.1,1.4,0.1,4
			s0,3-0.1,4c0,0.6-0.1,1.3-0.3,1.9c-0.3,0.9-1,1.6-1.9,1.9c-0.6,0.2-1.2,0.3-1.9,0.3c-1,0-1.4,0.1-4,0.1s-3,0-4-0.1
			c-0.7,0-1.3-0.1-1.9-0.3c-0.9-0.3-1.6-1-1.9-1.9C2,15.3,1.9,14.6,1.9,14c0-1-0.1-1.4-0.1-4s0-3,0.1-4c0-0.6,0.1-1.3,0.3-1.9
			c0.3-0.9,1-1.6,1.9-1.9C4.7,2,5.4,1.9,6,1.9C7,1.8,7.4,1.8,10,1.8 M10,0C7.3,0,6.9,0,5.9,0.1c-0.8,0-1.7,0.2-2.4,0.5
			C2.8,0.8,2.2,1.2,1.7,1.7C1.2,2.2,0.8,2.8,0.5,3.4C0.2,4.2,0.1,5.1,0.1,5.9C0,6.9,0,7.3,0,10s0,3.1,0.1,4.1c0,0.8,0.2,1.7,0.5,2.4
			c0.3,0.7,0.6,1.3,1.2,1.8c0.5,0.5,1.1,0.9,1.8,1.2c0.8,0.3,1.6,0.4,2.4,0.5C6.9,20,7.3,20,10,20s3.1,0,4.1-0.1
			c0.8,0,1.7-0.2,2.4-0.5c1.3-0.5,2.4-1.6,2.9-2.9c0.3-0.8,0.4-1.6,0.5-2.4c0-1.1,0.1-1.4,0.1-4.1s0-3.1-0.1-4.1
			c0-0.8-0.2-1.7-0.5-2.4c-0.3-0.7-0.6-1.3-1.2-1.8c-0.5-0.5-1.1-0.9-1.8-1.2c-0.8-0.3-1.6-0.4-2.4-0.5C13.1,0,12.7,0,10,0z"/>
		<path d="M10,4.9c-2.8,0-5.1,2.3-5.1,5.1s2.3,5.1,5.1,5.1s5.1-2.3,5.1-5.1S12.8,4.9,10,4.9L10,4.9z M10,13.3
			c-1.8,0-3.3-1.5-3.3-3.3S8.2,6.7,10,6.7s3.3,1.5,3.3,3.3l0,0C13.3,11.8,11.8,13.3,10,13.3z"/>
		<circle cx="15.3" cy="4.7" r="1.2"/>
	</g>
</g>
</svg>
