<svg xmlns="http://www.w3.org/2000/svg" viewBox="0 0 469.36 144.48"><defs><style>.cls-1{fill:#fff;}</style></defs><title>アセット 1</title><g id="レイヤー_2" data-name="レイヤー 2"><g id="レイヤー_1-2" data-name="レイヤー 1"><path d="M0,0V144.48H469.36V0ZM5,139.53V79.16H464.41v60.37Z"/><path class="cls-1" d="M109,48.24V33.46c0-9.72,5.2-16.48,16-16.48H140.7c10,0,15.19,5.47,15.93,14a1.84,1.84,0,0,1-2,2.1h-8c-1.28,0-1.89-.68-2.09-2-.48-2.23-1.76-2.57-3.85-2.57H125c-2.56,0-4,.48-4,4.6V48.65c0,4.05,1.62,4.52,4,4.52H140.7c2.36,0,4-.47,4-4.52V47.1H136a1.85,1.85,0,0,1-2-2V38.79a1.85,1.85,0,0,1,2-2h18.63a1.85,1.85,0,0,1,2,2v9.45c0,9.66-5.2,16.41-16,16.41H125C114.16,64.65,109,57.9,109,48.24Z"/><path class="cls-1" d="M164.58,48.24V19a1.85,1.85,0,0,1,2-2h8a1.85,1.85,0,0,1,2,2V48.65c0,4.05,1.62,4.52,4,4.52h15.74c2.36,0,4-.47,4-4.52V19a1.85,1.85,0,0,1,2-2h8a1.86,1.86,0,0,1,2,2V48.24c0,9.66-5.2,16.41-16,16.41H180.57C169.77,64.65,164.58,57.9,164.58,48.24Z"/><path class="cls-1" d="M221.06,62.63V19a1.85,1.85,0,0,1,2-2h9.66a2.57,2.57,0,0,1,2.43,1.36l14.58,24.51,14.52-24.51A2.57,2.57,0,0,1,266.7,17h9.65a1.86,1.86,0,0,1,2,2V62.63a1.85,1.85,0,0,1-2,2h-7.9a1.84,1.84,0,0,1-2-2V36l-12,19.78A2.58,2.58,0,0,1,252,57.09h-4.72a2.58,2.58,0,0,1-2.43-1.35L233,36.16V62.63a1.84,1.84,0,0,1-2,2h-7.9A1.84,1.84,0,0,1,221.06,62.63Z"/><path class="cls-1" d="M284.76,47.71v-4.8a1.85,1.85,0,0,1,2-2H301a1.85,1.85,0,0,1,2,2v4.8a1.85,1.85,0,0,1-2,2H286.79A1.85,1.85,0,0,1,284.76,47.71Z"/><path class="cls-1" d="M347.21,63.1l-2.44-5.87H321.62l-2.44,5.87a2.33,2.33,0,0,1-2.35,1.55h-9.05c-1.56,0-2.16-.94-1.56-2.36l19.92-43.75A2.34,2.34,0,0,1,328.51,17h9.38a2.33,2.33,0,0,1,2.36,1.56l19.92,43.75c.61,1.42,0,2.36-1.55,2.36h-9.05A2.34,2.34,0,0,1,347.21,63.1Zm-6.42-15.59-7.56-18.24-7.56,18.24Z"/><path d="M127.29,101.72a9.88,9.88,0,0,1,2.2,2.13v-11H133v29.88h-3.29v-3a7.76,7.76,0,0,1-3,2.9,8.47,8.47,0,0,1-4,.89,8,8,0,0,1-6.26-3,11.92,11.92,0,0,1-2.65-8.12,14.06,14.06,0,0,1,2.42-8.22,7.86,7.86,0,0,1,6.89-3.47A7.69,7.69,0,0,1,127.29,101.72ZM119.15,118a5.13,5.13,0,0,0,4.71,2.35,5,5,0,0,0,4.15-2.18,10.34,10.34,0,0,0,1.62-6.25c0-2.75-.55-4.78-1.67-6.09a5.22,5.22,0,0,0-4.13-2,5.43,5.43,0,0,0-4.45,2.11q-1.71,2.1-1.71,6.2A10.75,10.75,0,0,0,119.15,118Z"/><path d="M151.86,101.65a8.15,8.15,0,0,1,3.28,2.81,9.75,9.75,0,0,1,1.46,3.83,25.63,25.63,0,0,1,.32,4.78H141.13a9.32,9.32,0,0,0,1.55,5.32,5.16,5.16,0,0,0,4.48,2,5.79,5.79,0,0,0,4.53-1.89A6.58,6.58,0,0,0,153,116h3.58a7.34,7.34,0,0,1-.94,2.67,9.6,9.6,0,0,1-1.78,2.4,8.48,8.48,0,0,1-4.09,2.19,12.66,12.66,0,0,1-3,.32,9.06,9.06,0,0,1-6.83-3c-1.86-2-2.79-4.72-2.79-8.26a12.52,12.52,0,0,1,2.82-8.49,9.24,9.24,0,0,1,7.37-3.27A9.84,9.84,0,0,1,151.86,101.65Zm1.31,8.52a9.51,9.51,0,0,0-1-3.79,5.24,5.24,0,0,0-5-2.63,5.47,5.47,0,0,0-4.18,1.81,6.84,6.84,0,0,0-1.79,4.61Z"/><path d="M163.71,116a5.24,5.24,0,0,0,.93,2.8q1.41,1.75,4.89,1.76a7.32,7.32,0,0,0,3.64-.88,2.94,2.94,0,0,0,1.57-2.73,2.31,2.31,0,0,0-1.26-2.12,14.58,14.58,0,0,0-3.17-1l-2.95-.73a14.43,14.43,0,0,1-4.16-1.54,4.6,4.6,0,0,1-2.39-4.09,6.22,6.22,0,0,1,2.25-5,9.06,9.06,0,0,1,6.05-1.91q5,0,7.17,2.88a6.25,6.25,0,0,1,1.34,3.94h-3.45a4.18,4.18,0,0,0-.89-2.24c-.86-1-2.35-1.43-4.46-1.43a5.51,5.51,0,0,0-3.21.78,2.45,2.45,0,0,0-1.09,2.08,2.57,2.57,0,0,0,1.43,2.27,9.1,9.1,0,0,0,2.44.89l2.46.58a19.21,19.21,0,0,1,5.37,1.85,4.88,4.88,0,0,1,2.13,4.4,6.7,6.7,0,0,1-2.23,5q-2.22,2.1-6.78,2.1-4.91,0-7-2.2A8.28,8.28,0,0,1,160.2,116Z"/><path d="M182.3,93H186v4.14H182.3Zm0,8.17H186v21.61H182.3Z"/><path d="M203.59,101.92a10.16,10.16,0,0,1,2.1,2.07v-2.74h3.37V121a14.74,14.74,0,0,1-1.21,6.53q-2.26,4.41-8.55,4.42a10.44,10.44,0,0,1-5.88-1.58,6.11,6.11,0,0,1-2.67-4.91h3.71a4.23,4.23,0,0,0,1,2.25,5.33,5.33,0,0,0,3.87,1.22c2.78,0,4.61-1,5.46-3,.52-1.17.75-3.24.71-6.23a7.18,7.18,0,0,1-2.62,2.48,8.74,8.74,0,0,1-4.06.81,8.64,8.64,0,0,1-6.15-2.51q-2.64-2.51-2.64-8.28,0-5.44,2.66-8.51a8.2,8.2,0,0,1,6.41-3.06A7.89,7.89,0,0,1,203.59,101.92Zm.45,3.92a5.29,5.29,0,0,0-4.22-2,5.2,5.2,0,0,0-5.24,3.61,14.12,14.12,0,0,0-.75,5,9,9,0,0,0,1.49,5.58,4.75,4.75,0,0,0,4,1.92,5.61,5.61,0,0,0,5.51-3.55,11.53,11.53,0,0,0,.88-4.68C205.69,109.13,205.14,107.13,204,105.84Z"/><path d="M214.61,101.05h3.47v3.08a9.66,9.66,0,0,1,3.26-2.73,8.64,8.64,0,0,1,3.83-.84q4.64,0,6.25,3.23a11.51,11.51,0,0,1,.89,5v13.92H228.6V109.08a7.26,7.26,0,0,0-.59-3.2,3.56,3.56,0,0,0-3.52-2,7.36,7.36,0,0,0-2.13.26,5.48,5.48,0,0,0-2.64,1.79,5.23,5.23,0,0,0-1.18,2.22,14.35,14.35,0,0,0-.28,3.27v11.37h-3.65Z"/><path d="M251.41,116a5.24,5.24,0,0,0,.93,2.8c.94,1.17,2.56,1.76,4.88,1.76a7.29,7.29,0,0,0,3.64-.88,2.92,2.92,0,0,0,1.57-2.73,2.3,2.3,0,0,0-1.25-2.12,15,15,0,0,0-3.17-1l-2.95-.73a14.43,14.43,0,0,1-4.16-1.54,4.58,4.58,0,0,1-2.39-4.09,6.22,6.22,0,0,1,2.25-5,9,9,0,0,1,6.05-1.91q5,0,7.17,2.88a6.18,6.18,0,0,1,1.33,3.94h-3.44a4.11,4.11,0,0,0-.9-2.24c-.85-1-2.34-1.43-4.46-1.43a5.45,5.45,0,0,0-3.2.78,2.45,2.45,0,0,0-1.09,2.08,2.57,2.57,0,0,0,1.43,2.27,9,9,0,0,0,2.44.89l2.46.58a19,19,0,0,1,5.36,1.85,4.88,4.88,0,0,1,2.13,4.4,6.69,6.69,0,0,1-2.22,5q-2.24,2.1-6.79,2.1c-3.27,0-5.58-.73-6.95-2.2A8.27,8.27,0,0,1,247.9,116Z"/><path d="M270.73,95h3.69v6.06h3.46v3h-3.46V118.2a1.51,1.51,0,0,0,.77,1.52,3.2,3.2,0,0,0,1.42.23l.56,0a7.05,7.05,0,0,0,.71-.07v2.9a9.07,9.07,0,0,1-1.3.27,13.58,13.58,0,0,1-1.47.08c-1.71,0-2.86-.44-3.47-1.31a5.79,5.79,0,0,1-.91-3.4V104h-2.94v-3h2.94Z"/><path d="M285.18,101.05v14.41a6.26,6.26,0,0,0,.51,2.72,3.57,3.57,0,0,0,3.54,1.95,5,5,0,0,0,5-3.41,13.74,13.74,0,0,0,.73-5V101.05h3.65v21.71h-3.45l0-3.2a7.35,7.35,0,0,1-1.73,2.09,7.53,7.53,0,0,1-5,1.7c-3,0-5.1-1-6.21-3.1a9.48,9.48,0,0,1-.89-4.44V101.05Z"/><path d="M316.55,101.72a10.1,10.1,0,0,1,2.2,2.13v-11h3.51v29.88H319v-3a7.76,7.76,0,0,1-3,2.9,8.47,8.47,0,0,1-4,.89,8.05,8.05,0,0,1-6.27-3,12,12,0,0,1-2.64-8.12,14.05,14.05,0,0,1,2.41-8.22,7.89,7.89,0,0,1,6.9-3.47A7.72,7.72,0,0,1,316.55,101.72ZM308.4,118a5.15,5.15,0,0,0,4.72,2.35,5,5,0,0,0,4.15-2.18,10.34,10.34,0,0,0,1.62-6.25q0-4.12-1.67-6.09a5.22,5.22,0,0,0-4.14-2,5.44,5.44,0,0,0-4.45,2.11q-1.69,2.1-1.7,6.2A10.84,10.84,0,0,0,308.4,118Z"/><path d="M327.71,93h3.71v4.14h-3.71Zm0,8.17h3.71v21.61h-3.71Z"/><path d="M352.66,103.22q2.88,2.79,2.88,8.22a14.17,14.17,0,0,1-2.53,8.67c-1.69,2.28-4.32,3.42-7.87,3.42a8.87,8.87,0,0,1-7.07-3,12,12,0,0,1-2.61-8.13c0-3.64.91-6.55,2.75-8.71a9.24,9.24,0,0,1,7.41-3.24A9.69,9.69,0,0,1,352.66,103.22Zm-2.26,14.43a13.79,13.79,0,0,0,1.33-6.11,11,11,0,0,0-1-4.94,5.4,5.4,0,0,0-5.25-3,5.16,5.16,0,0,0-4.81,2.55,11.83,11.83,0,0,0-1.51,6.15,10.3,10.3,0,0,0,1.51,5.77,5.27,5.27,0,0,0,4.77,2.31Q349.07,120.39,350.4,117.65Z"/></g></g></svg>