<svg xmlns="http://www.w3.org/2000/svg" viewBox="0 0 601.14 294.6"><defs><style>.cls-1{fill:#ff6e6e;}.cls-2{fill:#fff;}</style></defs><title>アセット 8</title><g id="レイヤー_2" data-name="レイヤー 2"><g id="レイヤー_5" data-name="レイヤー 5"><path class="cls-1" d="M385.89.18c55.05-3,112.87,33,97.43,72.48S379.16,154.77,340.21,194.77s-28.25,77.1-38.94,87.92-42.78-4.62-75.38-4-65.75,17.69-103.51,15.71-80.53-23-104-58.74-27.6-86.34,6.07-104.56,105-4,145-5.68,48.45-19.54,79-49.64S331,3.35,385.89.18Z"/><path d="M80.49,75.17V235.44H601.14V75.17ZM86,229.94V163H595.65v67Z"/><path class="cls-2" d="M201.36,128.68v-16.4c0-10.78,5.77-18.27,17.75-18.27h17.46c11.08,0,16.85,6.06,17.67,15.5a2,2,0,0,1-2.25,2.33h-8.83c-1.43,0-2.1-.76-2.33-2.25-.52-2.47-1.94-2.85-4.26-2.85H219.11c-2.85,0-4.41.53-4.41,5.1v17.3c0,4.49,1.79,5,4.41,5h17.46c2.62,0,4.42-.52,4.42-5v-1.73H231.4a2,2,0,0,1-2.25-2.24v-7A2,2,0,0,1,231.4,116h20.67a2,2,0,0,1,2.25,2.24v10.48c0,10.72-5.78,18.21-17.75,18.21H219.11C207.13,146.89,201.36,139.4,201.36,128.68Z"/><path class="cls-2" d="M263.05,128.68V96.26A2,2,0,0,1,265.29,94h8.84a2.05,2.05,0,0,1,2.25,2.25v32.88c0,4.49,1.8,5,4.41,5h17.46c2.62,0,4.42-.52,4.42-5V96.26A2,2,0,0,1,304.91,94h8.84A2.06,2.06,0,0,1,316,96.26v32.42c0,10.72-5.77,18.21-17.75,18.21H280.79C268.81,146.89,263.05,139.4,263.05,128.68Z"/><path class="cls-2" d="M325.71,144.64V96.26A2,2,0,0,1,328,94h10.71a2.86,2.86,0,0,1,2.7,1.5l16.17,27.19,16.11-27.19a2.84,2.84,0,0,1,2.69-1.5H387a2.06,2.06,0,0,1,2.25,2.25v48.38a2.06,2.06,0,0,1-2.25,2.25h-8.76a2.06,2.06,0,0,1-2.25-2.25V115.06L362.78,137a2.86,2.86,0,0,1-2.7,1.5h-5.24a2.83,2.83,0,0,1-2.69-1.5L339,115.28v29.36a2,2,0,0,1-2.24,2.25H328A2,2,0,0,1,325.71,144.64Z"/><path class="cls-2" d="M396.37,128.09v-5.32a2,2,0,0,1,2.25-2.24h15.73a2,2,0,0,1,2.25,2.24v5.32a2.06,2.06,0,0,1-2.25,2.25H398.62A2.05,2.05,0,0,1,396.37,128.09Z"/><path class="cls-2" d="M465.64,145.16l-2.7-6.51H437.26l-2.71,6.51a2.6,2.6,0,0,1-2.61,1.73h-10c-1.73,0-2.39-1-1.73-2.63l22.1-48.53A2.59,2.59,0,0,1,444.9,94h10.4a2.57,2.57,0,0,1,2.62,1.72L480,144.26c.67,1.58,0,2.63-1.72,2.63h-10A2.62,2.62,0,0,1,465.64,145.16Zm-7.12-17.3-8.39-20.22-8.38,20.22Z"/><path d="M221.69,188a10.72,10.72,0,0,1,2.44,2.37V178.2H228v33.15h-3.64V208a8.71,8.71,0,0,1-3.34,3.21,9.49,9.49,0,0,1-4.41,1,8.93,8.93,0,0,1-6.94-3.38,13.26,13.26,0,0,1-2.94-9,15.55,15.55,0,0,1,2.68-9.12,8.75,8.75,0,0,1,7.65-3.86A8.51,8.51,0,0,1,221.69,188Zm-9,18.06a5.71,5.71,0,0,0,5.23,2.61,5.51,5.51,0,0,0,4.6-2.42q1.8-2.42,1.8-6.93t-1.86-6.76a5.76,5.76,0,0,0-4.58-2.19,6,6,0,0,0-4.94,2.33c-1.26,1.56-1.89,3.86-1.89,6.88A12,12,0,0,0,212.66,206.06Z"/><path d="M249,187.93a9.12,9.12,0,0,1,3.64,3.11,10.85,10.85,0,0,1,1.61,4.25,27.82,27.82,0,0,1,.36,5.31H237a10.36,10.36,0,0,0,1.72,5.89,5.73,5.73,0,0,0,5,2.23,6.42,6.42,0,0,0,5-2.11,7.21,7.21,0,0,0,1.48-2.82h4a8.21,8.21,0,0,1-1.05,3,10.66,10.66,0,0,1-2,2.66,9.34,9.34,0,0,1-4.53,2.43,13.61,13.61,0,0,1-3.28.36,10,10,0,0,1-7.57-3.27q-3.1-3.27-3.11-9.17a13.9,13.9,0,0,1,3.13-9.42,10.29,10.29,0,0,1,8.18-3.62A10.79,10.79,0,0,1,249,187.93Zm1.45,9.45a10.73,10.73,0,0,0-1.14-4.2,5.82,5.82,0,0,0-5.51-2.93,6,6,0,0,0-4.63,2,7.59,7.59,0,0,0-2,5.11Z"/><path d="M262.09,203.79a5.74,5.74,0,0,0,1,3.1q1.56,2,5.41,2a8.14,8.14,0,0,0,4-1,3.24,3.24,0,0,0,1.75-3,2.57,2.57,0,0,0-1.4-2.36,16.38,16.38,0,0,0-3.52-1.15l-3.27-.81a16.12,16.12,0,0,1-4.61-1.71,5.08,5.08,0,0,1-2.65-4.54,6.9,6.9,0,0,1,2.49-5.53,10,10,0,0,1,6.71-2.12q5.52,0,8,3.2a6.89,6.89,0,0,1,1.48,4.36H273.7a4.61,4.61,0,0,0-1-2.48q-1.44-1.59-4.95-1.59a6.05,6.05,0,0,0-3.56.87A2.7,2.7,0,0,0,263,193.3a2.84,2.84,0,0,0,1.59,2.51,9.9,9.9,0,0,0,2.7,1l2.73.65a21.65,21.65,0,0,1,6,2,5.45,5.45,0,0,1,2.36,4.89,7.42,7.42,0,0,1-2.47,5.55q-2.48,2.34-7.53,2.34c-3.63,0-6.19-.82-7.7-2.44a9.2,9.2,0,0,1-2.43-6Z"/><path d="M282.71,178.31h4.12v4.59h-4.12Zm0,9.06h4.12v24h-4.12Z"/><path d="M306.33,188.23a11.06,11.06,0,0,1,2.33,2.29v-3h3.73v21.9a16.15,16.15,0,0,1-1.34,7.24q-2.51,4.91-9.48,4.9a11.59,11.59,0,0,1-6.52-1.74,6.81,6.81,0,0,1-3-5.45h4.11a4.61,4.61,0,0,0,1.17,2.49,5.9,5.9,0,0,0,4.29,1.35q4.63,0,6.06-3.28.86-1.93.78-6.9a7.9,7.9,0,0,1-2.91,2.74,10.4,10.4,0,0,1-11.32-1.88q-2.92-2.78-2.92-9.19,0-6,2.94-9.44a9.13,9.13,0,0,1,7.11-3.4A8.7,8.7,0,0,1,306.33,188.23Zm.5,4.34a5.86,5.86,0,0,0-4.68-2.16,5.76,5.76,0,0,0-5.81,4,15.6,15.6,0,0,0-.83,5.6,10,10,0,0,0,1.64,6.2,5.32,5.32,0,0,0,4.42,2.12,6.21,6.21,0,0,0,6.11-3.93,12.9,12.9,0,0,0,1-5.2Q308.66,194.73,306.83,192.57Z"/><path d="M318.56,187.26h3.84v3.42a10.9,10.9,0,0,1,3.62-3,9.73,9.73,0,0,1,4.25-.92q5.13,0,6.93,3.58a12.68,12.68,0,0,1,1,5.6v15.45h-4.12V196.17a8.18,8.18,0,0,0-.65-3.56,4,4,0,0,0-3.91-2.24,7.78,7.78,0,0,0-2.36.29,6,6,0,0,0-2.92,2,5.83,5.83,0,0,0-1.32,2.46,16.18,16.18,0,0,0-.3,3.63v12.62h-4.05Z"/><path d="M359.37,203.79a5.83,5.83,0,0,0,1,3.1q1.56,2,5.42,2a8.14,8.14,0,0,0,4-1,3.23,3.23,0,0,0,1.74-3,2.56,2.56,0,0,0-1.39-2.36,16.59,16.59,0,0,0-3.52-1.15l-3.27-.81a16.12,16.12,0,0,1-4.61-1.71,5.08,5.08,0,0,1-2.65-4.54,6.9,6.9,0,0,1,2.49-5.53,10,10,0,0,1,6.71-2.12q5.52,0,7.95,3.2a6.84,6.84,0,0,1,1.49,4.36H371a4.46,4.46,0,0,0-1-2.48q-1.43-1.59-5-1.59a6.06,6.06,0,0,0-3.55.87,2.7,2.7,0,0,0-1.21,2.31,2.84,2.84,0,0,0,1.59,2.51,9.9,9.9,0,0,0,2.7,1l2.73.65a21.65,21.65,0,0,1,6,2,5.45,5.45,0,0,1,2.36,4.89,7.42,7.42,0,0,1-2.47,5.55q-2.47,2.34-7.53,2.34c-3.62,0-6.19-.82-7.71-2.44a9.19,9.19,0,0,1-2.42-6Z"/><path d="M380.8,180.54h4.09v6.72h3.85v3.31h-3.85v15.72a1.69,1.69,0,0,0,.86,1.68,3.53,3.53,0,0,0,1.57.25H388l.79-.08v3.22a9.79,9.79,0,0,1-1.45.29,13.68,13.68,0,0,1-1.63.09c-1.89,0-3.17-.49-3.85-1.45a6.48,6.48,0,0,1-1-3.77V190.57h-3.26v-3.31h3.26Z"/><path d="M396.83,187.26v16a6.73,6.73,0,0,0,.58,3,3.94,3.94,0,0,0,3.92,2.16,5.54,5.54,0,0,0,5.6-3.78,15.31,15.31,0,0,0,.81-5.55V187.26h4.05v24.09H408l.05-3.56a8.08,8.08,0,0,1-1.92,2.32,8.33,8.33,0,0,1-5.52,1.89q-5.06,0-6.88-3.44a10.45,10.45,0,0,1-1-4.93V187.26Z"/><path d="M431.63,188a10.72,10.72,0,0,1,2.44,2.37V178.2H438v33.15h-3.64V208a8.71,8.71,0,0,1-3.34,3.21,9.49,9.49,0,0,1-4.41,1,9,9,0,0,1-6.95-3.38,13.31,13.31,0,0,1-2.93-9,15.55,15.55,0,0,1,2.68-9.12,8.75,8.75,0,0,1,7.65-3.86A8.51,8.51,0,0,1,431.63,188Zm-9,18.06a5.7,5.7,0,0,0,5.23,2.61,5.51,5.51,0,0,0,4.6-2.42q1.8-2.42,1.8-6.93t-1.86-6.76a5.76,5.76,0,0,0-4.58-2.19,6,6,0,0,0-4.94,2.33c-1.26,1.56-1.89,3.86-1.89,6.88A12,12,0,0,0,422.6,206.06Z"/><path d="M444,178.31h4.12v4.59H444Zm0,9.06h4.12v24H444Z"/><path d="M471.69,189.67q3.19,3.09,3.2,9.12a15.67,15.67,0,0,1-2.82,9.61q-2.81,3.79-8.73,3.8a9.84,9.84,0,0,1-7.84-3.36q-2.89-3.36-2.9-9,0-6.06,3.06-9.66a10.24,10.24,0,0,1,8.22-3.6A10.78,10.78,0,0,1,471.69,189.67Zm-2.51,16a15.22,15.22,0,0,0,1.48-6.77,12.17,12.17,0,0,0-1.07-5.48,6,6,0,0,0-5.82-3.33,5.73,5.73,0,0,0-5.34,2.84,13.21,13.21,0,0,0-1.67,6.82,11.49,11.49,0,0,0,1.67,6.4,5.84,5.84,0,0,0,5.29,2.57C466.38,208.72,468.19,207.7,469.18,205.67Z"/></g></g></svg>