<svg xmlns="http://www.w3.org/2000/svg" viewBox="0 0 450.7 138.73"><defs><style>.cls-1{fill:#fff;}</style></defs><title>アセット 3</title><g id="レイヤー_2" data-name="レイヤー 2"><g id="レイヤー_1-2" data-name="レイヤー 1"><path d="M0,0V138.73H450.7V0ZM4.75,134V76H445.94v58Z"/><path class="cls-1" d="M104.63,46.32V32.13c0-9.34,5-15.82,15.36-15.82H135.1c9.6,0,14.59,5.25,15.3,13.42a1.76,1.76,0,0,1-1.94,2h-7.65c-1.23,0-1.82-.65-2-1.94-.46-2.14-1.69-2.47-3.7-2.47H120c-2.46,0-3.82.46-3.82,4.41v15c0,3.88,1.56,4.34,3.82,4.34H135.1c2.27,0,3.83-.46,3.83-4.34v-1.5h-8.3a1.78,1.78,0,0,1-1.95-1.94v-6a1.78,1.78,0,0,1,1.95-1.94h17.89a1.78,1.78,0,0,1,1.95,1.94v9.07c0,9.28-5,15.76-15.37,15.76H120C109.62,62.08,104.63,55.6,104.63,46.32Z"/><path class="cls-1" d="M158,46.32V18.26a1.78,1.78,0,0,1,1.94-2h7.65a1.78,1.78,0,0,1,1.95,2V46.72c0,3.88,1.56,4.34,3.82,4.34H188.5c2.27,0,3.83-.46,3.83-4.34V18.26a1.77,1.77,0,0,1,1.94-2h7.65a1.78,1.78,0,0,1,2,2V46.32c0,9.28-5,15.76-15.37,15.76H173.39C163,62.08,158,55.6,158,46.32Z"/><path class="cls-1" d="M212.27,60.13V18.26a1.78,1.78,0,0,1,1.94-2h9.27a2.48,2.48,0,0,1,2.34,1.3l14,23.53,13.94-23.53a2.46,2.46,0,0,1,2.33-1.3h9.27a1.78,1.78,0,0,1,1.95,2V60.13a1.78,1.78,0,0,1-1.95,1.95h-7.58a1.78,1.78,0,0,1-1.95-1.95V34.53l-11.47,19a2.48,2.48,0,0,1-2.34,1.3h-4.53a2.48,2.48,0,0,1-2.34-1.3l-11.41-18.8V60.13a1.77,1.77,0,0,1-1.94,1.95h-7.59A1.77,1.77,0,0,1,212.27,60.13Z"/><path class="cls-1" d="M273.44,45.81v-4.6a1.77,1.77,0,0,1,1.94-2H289a1.78,1.78,0,0,1,1.95,2v4.6A1.78,1.78,0,0,1,289,47.76H275.38A1.78,1.78,0,0,1,273.44,45.81Z"/><path class="cls-1" d="M333.4,60.59,331.06,55H308.83l-2.34,5.64a2.25,2.25,0,0,1-2.26,1.49h-8.69c-1.5,0-2.08-.91-1.5-2.27l19.13-42a2.24,2.24,0,0,1,2.27-1.49h9a2.23,2.23,0,0,1,2.27,1.49l19.13,42c.58,1.36,0,2.27-1.49,2.27h-8.69A2.25,2.25,0,0,1,333.4,60.59Zm-6.16-15L320,28.11l-7.26,17.51Z"/><path d="M128,98a9.49,9.49,0,0,1,2.11,2V89.5h3.36v28.63h-3.15v-2.89a7.54,7.54,0,0,1-2.88,2.78,8.22,8.22,0,0,1-3.81.85,7.7,7.7,0,0,1-6-2.92,11.46,11.46,0,0,1-2.54-7.78,13.49,13.49,0,0,1,2.31-7.88A7.57,7.57,0,0,1,124.05,97,7.39,7.39,0,0,1,128,98Zm-7.81,15.6a4.94,4.94,0,0,0,4.53,2.25,4.74,4.74,0,0,0,4-2.09,9.94,9.94,0,0,0,1.55-6c0-2.63-.53-4.57-1.6-5.84a5,5,0,0,0-4-1.89,5.22,5.22,0,0,0-4.27,2,9.34,9.34,0,0,0-1.63,5.94A10.37,10.37,0,0,0,120.23,113.57Z"/><path d="M151.59,97.9a7.89,7.89,0,0,1,3.14,2.69,9.21,9.21,0,0,1,1.39,3.67,23.87,23.87,0,0,1,.31,4.59H141.3a9,9,0,0,0,1.48,5.09,5,5,0,0,0,4.3,1.92,5.53,5.53,0,0,0,4.34-1.81,6.29,6.29,0,0,0,1.28-2.44h3.44a7.26,7.26,0,0,1-.9,2.55,9,9,0,0,1-1.72,2.3,8,8,0,0,1-3.91,2.1,11.62,11.62,0,0,1-2.83.31,8.7,8.7,0,0,1-6.55-2.82q-2.68-2.83-2.68-7.92a12,12,0,0,1,2.7-8.14,8.88,8.88,0,0,1,7.07-3.13A9.44,9.44,0,0,1,151.59,97.9Zm1.25,8.17a9.09,9.09,0,0,0-1-3.63,5,5,0,0,0-4.76-2.53,5.26,5.26,0,0,0-4,1.74,6.57,6.57,0,0,0-1.71,4.42Z"/><path d="M162.94,111.61a5.05,5.05,0,0,0,.89,2.68c.9,1.12,2.46,1.69,4.68,1.69a6.94,6.94,0,0,0,3.49-.85,2.78,2.78,0,0,0,1.51-2.61,2.23,2.23,0,0,0-1.21-2,14.24,14.24,0,0,0-3-1l-2.82-.7a13.81,13.81,0,0,1-4-1.48,4.38,4.38,0,0,1-2.29-3.92,6,6,0,0,1,2.16-4.78,8.65,8.65,0,0,1,5.8-1.83q4.75,0,6.87,2.76a6,6,0,0,1,1.28,3.77H173a3.92,3.92,0,0,0-.85-2.14c-.82-.92-2.25-1.37-4.28-1.37a5.25,5.25,0,0,0-3.07.75,2.33,2.33,0,0,0-1,2,2.43,2.43,0,0,0,1.37,2.17,8.22,8.22,0,0,0,2.33.85l2.36.57a18.61,18.61,0,0,1,5.15,1.77,4.67,4.67,0,0,1,2,4.21,6.42,6.42,0,0,1-2.14,4.8q-2.13,2-6.5,2-4.7,0-6.66-2.11a7.91,7.91,0,0,1-2.09-5.21Z"/><path d="M180.75,89.6h3.56v4h-3.56Zm0,7.83h3.56v20.7h-3.56Z"/><path d="M201.16,98.16a9.79,9.79,0,0,1,2,2V97.52h3.23v18.92a14.06,14.06,0,0,1-1.16,6.26q-2.18,4.23-8.19,4.23a10,10,0,0,1-5.64-1.5,5.9,5.9,0,0,1-2.55-4.71h3.55a3.9,3.9,0,0,0,1,2.15,5.07,5.07,0,0,0,3.7,1.17q4,0,5.24-2.84a16,16,0,0,0,.68-6,6.92,6.92,0,0,1-2.52,2.37,9,9,0,0,1-9.78-1.62c-1.68-1.6-2.53-4.25-2.53-7.94q0-5.22,2.55-8.16A7.87,7.87,0,0,1,196.9,97,7.55,7.55,0,0,1,201.16,98.16Zm.43,3.75a5.09,5.09,0,0,0-4-1.86,5,5,0,0,0-5,3.46,13.76,13.76,0,0,0-.71,4.83,8.63,8.63,0,0,0,1.42,5.36,4.59,4.59,0,0,0,3.82,1.83,5.35,5.35,0,0,0,5.27-3.4,11,11,0,0,0,.85-4.49Q203.17,103.79,201.59,101.91Z"/><path d="M211.72,97.33H215v3a9.33,9.33,0,0,1,3.13-2.62,8.34,8.34,0,0,1,3.67-.8q4.42,0,6,3.09a11,11,0,0,1,.85,4.84v13.34h-3.56V105a7,7,0,0,0-.56-3.07,3.42,3.42,0,0,0-3.38-1.94,6.83,6.83,0,0,0-2,.25,5.28,5.28,0,0,0-2.52,1.71,5.06,5.06,0,0,0-1.14,2.13,14,14,0,0,0-.26,3.14v10.89h-3.5Z"/><path d="M260,99.4q2.76,2.68,2.76,7.88a13.56,13.56,0,0,1-2.44,8.31q-2.43,3.28-7.54,3.28A8.47,8.47,0,0,1,246,116a11.5,11.5,0,0,1-2.51-7.79,12.41,12.41,0,0,1,2.65-8.35,8.82,8.82,0,0,1,7.09-3.1A9.35,9.35,0,0,1,260,99.4Zm-2.17,13.83a13.21,13.21,0,0,0,1.27-5.85,10.4,10.4,0,0,0-.92-4.73,5.16,5.16,0,0,0-5-2.87,4.94,4.94,0,0,0-4.61,2.44,11.44,11.44,0,0,0-1.44,5.9,10,10,0,0,0,1.44,5.53,5.06,5.06,0,0,0,4.57,2.21A4.78,4.78,0,0,0,257.81,113.23Z"/><path d="M268.66,91c.82-1.2,2.39-1.79,4.72-1.79.22,0,.45,0,.68,0l.8.06v3.18l-.8,0h-.46c-1.07,0-1.72.28-1.93.83a16.7,16.7,0,0,0-.31,4.21h3.5v2.75h-3.5v17.95H267.9V100.18H265V97.43h2.89V94.16A6.21,6.21,0,0,1,268.66,91Z"/><path d="M279.71,91c.82-1.2,2.39-1.79,4.72-1.79.22,0,.45,0,.68,0l.8.06v3.18l-.79,0h-.47c-1.07,0-1.71.28-1.92.83a16,16,0,0,0-.32,4.21h3.5v2.75h-3.5v17.95H279V100.18h-2.9V97.43H279V94.16A6.23,6.23,0,0,1,279.71,91Z"/><path d="M289.14,89.6h3.55v4h-3.55Zm0,7.83h3.55v20.7h-3.55Z"/><path d="M311.72,98.43c1.47,1.14,2.35,3.11,2.65,5.89H311a6.24,6.24,0,0,0-1.42-3.19A4.46,4.46,0,0,0,306,99.85a4.92,4.92,0,0,0-4.78,3.26,13,13,0,0,0-.93,5.22,9.82,9.82,0,0,0,1.32,5.26,5.11,5.11,0,0,0,7.6.81,7.21,7.21,0,0,0,1.76-3.63h3.4q-.58,4.14-2.91,6a9.08,9.08,0,0,1-6,1.92,7.93,7.93,0,0,1-6.5-3,11.39,11.39,0,0,1-2.43-7.45c0-3.65.88-6.49,2.66-8.52a8.57,8.57,0,0,1,6.78-3A9.13,9.13,0,0,1,311.72,98.43Z"/><path d="M330.72,97.9a7.85,7.85,0,0,1,3.15,2.69,9.36,9.36,0,0,1,1.39,3.67,24.73,24.73,0,0,1,.31,4.59H320.43a9,9,0,0,0,1.49,5.09,4.94,4.94,0,0,0,4.3,1.92,5.51,5.51,0,0,0,4.33-1.81,6.31,6.31,0,0,0,1.29-2.44h3.44a7.51,7.51,0,0,1-.91,2.55,9,9,0,0,1-1.71,2.3,8,8,0,0,1-3.91,2.1,11.71,11.71,0,0,1-2.84.31,8.69,8.69,0,0,1-6.54-2.82q-2.69-2.83-2.69-7.92a12,12,0,0,1,2.71-8.14,8.86,8.86,0,0,1,7.06-3.13A9.44,9.44,0,0,1,330.72,97.9Zm1.25,8.17a9.09,9.09,0,0,0-1-3.63,5,5,0,0,0-4.76-2.53,5.23,5.23,0,0,0-4,1.74,6.57,6.57,0,0,0-1.72,4.42Z"/></g></g></svg>